<mxfile host="app.diagrams.net" modified="2023-01-05T06:25:19.331Z" agent="5.0 (Macintosh; Intel Mac OS X 10_14_6) AppleWebKit/537.36 (KHTML, like Gecko) Chrome/108.0.0.0 Safari/537.36" version="20.8.1" etag="a7cGGEoCN0yfW7QmHC1x" type="github">
  <diagram id="rSZx2P6MkjNaPdJfjSLx" name="第 1 页">
    <mxGraphModel dx="1781" dy="593" grid="1" gridSize="10" guides="1" tooltips="1" connect="1" arrows="1" fold="1" page="1" pageScale="1" pageWidth="827" pageHeight="1169" math="0" shadow="0">
      <root>
        <mxCell id="0" />
        <mxCell id="1" parent="0" />
        <mxCell id="68Pi1ZpebNn5_aU23Zon-60" value="" style="rounded=0;whiteSpace=wrap;html=1;strokeWidth=2;fillWeight=4;hachureGap=8;hachureAngle=45;fillColor=#fff2cc;fontSize=15;glass=0;strokeColor=#d6b656;" vertex="1" parent="1">
          <mxGeometry x="120" y="420" width="320" height="40" as="geometry" />
        </mxCell>
        <mxCell id="68Pi1ZpebNn5_aU23Zon-63" value="" style="rounded=0;whiteSpace=wrap;html=1;strokeWidth=2;fillWeight=4;hachureGap=8;hachureAngle=45;fillColor=#fff2cc;fontSize=15;glass=0;strokeColor=#d6b656;" vertex="1" parent="1">
          <mxGeometry x="440" y="420" width="320" height="40" as="geometry" />
        </mxCell>
        <mxCell id="68Pi1ZpebNn5_aU23Zon-1" value="0" style="rounded=0;whiteSpace=wrap;html=1;strokeWidth=2;fillWeight=4;hachureGap=8;hachureAngle=45;fillColor=#dae8fc;strokeColor=#6c8ebf;fontSize=15;fontStyle=1" vertex="1" parent="1">
          <mxGeometry x="120" y="280" width="40" height="40" as="geometry" />
        </mxCell>
        <mxCell id="68Pi1ZpebNn5_aU23Zon-2" value="1" style="rounded=0;whiteSpace=wrap;html=1;strokeWidth=2;fillWeight=4;hachureGap=8;hachureAngle=45;fillColor=#dae8fc;strokeColor=#6c8ebf;fontSize=15;fontStyle=1" vertex="1" parent="1">
          <mxGeometry x="160" y="280" width="40" height="40" as="geometry" />
        </mxCell>
        <mxCell id="68Pi1ZpebNn5_aU23Zon-4" value="0" style="rounded=0;whiteSpace=wrap;html=1;strokeWidth=2;fillWeight=4;hachureGap=8;hachureAngle=45;fillColor=#dae8fc;strokeColor=#6c8ebf;fontSize=15;fontStyle=1" vertex="1" parent="1">
          <mxGeometry x="200" y="280" width="40" height="40" as="geometry" />
        </mxCell>
        <mxCell id="68Pi1ZpebNn5_aU23Zon-5" value="0" style="rounded=0;whiteSpace=wrap;html=1;strokeWidth=2;fillWeight=4;hachureGap=8;hachureAngle=45;fillColor=#dae8fc;strokeColor=#6c8ebf;fontSize=15;fontStyle=1" vertex="1" parent="1">
          <mxGeometry x="240" y="280" width="40" height="40" as="geometry" />
        </mxCell>
        <mxCell id="68Pi1ZpebNn5_aU23Zon-8" value="0" style="rounded=0;whiteSpace=wrap;html=1;strokeWidth=2;fillWeight=4;hachureGap=8;hachureAngle=45;fillColor=#dae8fc;strokeColor=#6c8ebf;fontSize=15;fontStyle=1" vertex="1" parent="1">
          <mxGeometry x="280" y="280" width="40" height="40" as="geometry" />
        </mxCell>
        <mxCell id="68Pi1ZpebNn5_aU23Zon-9" value="0" style="rounded=0;whiteSpace=wrap;html=1;strokeWidth=2;fillWeight=4;hachureGap=8;hachureAngle=45;fillColor=#dae8fc;strokeColor=#6c8ebf;fontSize=15;fontStyle=1" vertex="1" parent="1">
          <mxGeometry x="320" y="280" width="40" height="40" as="geometry" />
        </mxCell>
        <mxCell id="68Pi1ZpebNn5_aU23Zon-10" value="0" style="rounded=0;whiteSpace=wrap;html=1;strokeWidth=2;fillWeight=4;hachureGap=8;hachureAngle=45;fillColor=#dae8fc;strokeColor=#6c8ebf;fontSize=15;fontStyle=1" vertex="1" parent="1">
          <mxGeometry x="360" y="280" width="40" height="40" as="geometry" />
        </mxCell>
        <mxCell id="68Pi1ZpebNn5_aU23Zon-11" value="1" style="rounded=0;whiteSpace=wrap;html=1;strokeWidth=2;fillWeight=4;hachureGap=8;hachureAngle=45;fillColor=#dae8fc;strokeColor=#6c8ebf;fontSize=15;fontStyle=1" vertex="1" parent="1">
          <mxGeometry x="400" y="280" width="40" height="40" as="geometry" />
        </mxCell>
        <mxCell id="68Pi1ZpebNn5_aU23Zon-12" value="0" style="rounded=0;whiteSpace=wrap;html=1;strokeWidth=2;fillWeight=4;hachureGap=8;hachureAngle=45;fillColor=#d5e8d4;strokeColor=#82b366;fontSize=15;fontStyle=1" vertex="1" parent="1">
          <mxGeometry x="440" y="280" width="40" height="40" as="geometry" />
        </mxCell>
        <mxCell id="68Pi1ZpebNn5_aU23Zon-13" value="1" style="rounded=0;whiteSpace=wrap;html=1;strokeWidth=2;fillWeight=4;hachureGap=8;hachureAngle=45;fillColor=#d5e8d4;strokeColor=#82b366;fontSize=15;fontStyle=1" vertex="1" parent="1">
          <mxGeometry x="480" y="280" width="40" height="40" as="geometry" />
        </mxCell>
        <mxCell id="68Pi1ZpebNn5_aU23Zon-14" value="0" style="rounded=0;whiteSpace=wrap;html=1;strokeWidth=2;fillWeight=4;hachureGap=8;hachureAngle=45;fillColor=#d5e8d4;strokeColor=#82b366;fontSize=15;fontStyle=1" vertex="1" parent="1">
          <mxGeometry x="520" y="280" width="40" height="40" as="geometry" />
        </mxCell>
        <mxCell id="68Pi1ZpebNn5_aU23Zon-15" value="0" style="rounded=0;whiteSpace=wrap;html=1;strokeWidth=2;fillWeight=4;hachureGap=8;hachureAngle=45;fillColor=#d5e8d4;strokeColor=#82b366;fontSize=15;fontStyle=1" vertex="1" parent="1">
          <mxGeometry x="560" y="280" width="40" height="40" as="geometry" />
        </mxCell>
        <mxCell id="68Pi1ZpebNn5_aU23Zon-16" value="0" style="rounded=0;whiteSpace=wrap;html=1;strokeWidth=2;fillWeight=4;hachureGap=8;hachureAngle=45;fillColor=#d5e8d4;strokeColor=#82b366;fontSize=15;fontStyle=1" vertex="1" parent="1">
          <mxGeometry x="600" y="280" width="40" height="40" as="geometry" />
        </mxCell>
        <mxCell id="68Pi1ZpebNn5_aU23Zon-17" value="0" style="rounded=0;whiteSpace=wrap;html=1;strokeWidth=2;fillWeight=4;hachureGap=8;hachureAngle=45;fillColor=#d5e8d4;strokeColor=#82b366;fontSize=15;fontStyle=1" vertex="1" parent="1">
          <mxGeometry x="640" y="280" width="40" height="40" as="geometry" />
        </mxCell>
        <mxCell id="68Pi1ZpebNn5_aU23Zon-18" value="1" style="rounded=0;whiteSpace=wrap;html=1;strokeWidth=2;fillWeight=4;hachureGap=8;hachureAngle=45;fillColor=#d5e8d4;strokeColor=#82b366;fontSize=15;fontStyle=1" vertex="1" parent="1">
          <mxGeometry x="680" y="280" width="40" height="40" as="geometry" />
        </mxCell>
        <mxCell id="68Pi1ZpebNn5_aU23Zon-19" value="0" style="rounded=0;whiteSpace=wrap;html=1;strokeWidth=2;fillWeight=4;hachureGap=8;hachureAngle=45;fillColor=#d5e8d4;strokeColor=#82b366;fontSize=15;fontStyle=1" vertex="1" parent="1">
          <mxGeometry x="720" y="280" width="40" height="40" as="geometry" />
        </mxCell>
        <mxCell id="68Pi1ZpebNn5_aU23Zon-20" value="" style="shape=curlyBracket;whiteSpace=wrap;html=1;rounded=1;labelPosition=left;verticalLabelPosition=middle;align=right;verticalAlign=middle;sketch=0;fontSize=15;rotation=90;" vertex="1" parent="1">
          <mxGeometry x="271.25" y="101.25" width="20" height="297.5" as="geometry" />
        </mxCell>
        <mxCell id="68Pi1ZpebNn5_aU23Zon-21" value="" style="shape=curlyBracket;whiteSpace=wrap;html=1;rounded=1;labelPosition=left;verticalLabelPosition=middle;align=right;verticalAlign=middle;sketch=0;fontSize=15;rotation=90;" vertex="1" parent="1">
          <mxGeometry x="590" y="101.25" width="20" height="297.5" as="geometry" />
        </mxCell>
        <mxCell id="68Pi1ZpebNn5_aU23Zon-22" value="65" style="text;strokeColor=none;fillColor=none;html=1;fontSize=15;fontStyle=1;verticalAlign=middle;align=center;rounded=0;sketch=0;" vertex="1" parent="1">
          <mxGeometry x="231.25" y="200" width="100" height="40" as="geometry" />
        </mxCell>
        <mxCell id="68Pi1ZpebNn5_aU23Zon-24" value="66" style="text;strokeColor=none;fillColor=none;html=1;fontSize=15;fontStyle=1;verticalAlign=middle;align=center;rounded=0;sketch=0;" vertex="1" parent="1">
          <mxGeometry x="550" y="200" width="100" height="40" as="geometry" />
        </mxCell>
        <mxCell id="68Pi1ZpebNn5_aU23Zon-26" value="0" style="text;strokeColor=none;fillColor=none;html=1;fontSize=15;fontStyle=1;verticalAlign=middle;align=center;rounded=0;sketch=0;" vertex="1" parent="1">
          <mxGeometry x="120" y="338.75" width="40" height="40" as="geometry" />
        </mxCell>
        <mxCell id="68Pi1ZpebNn5_aU23Zon-27" value="1" style="text;strokeColor=none;fillColor=none;html=1;fontSize=15;fontStyle=1;verticalAlign=middle;align=center;rounded=0;sketch=0;" vertex="1" parent="1">
          <mxGeometry x="160" y="338.75" width="40" height="40" as="geometry" />
        </mxCell>
        <mxCell id="68Pi1ZpebNn5_aU23Zon-28" value="2" style="text;strokeColor=none;fillColor=none;html=1;fontSize=15;fontStyle=1;verticalAlign=middle;align=center;rounded=0;sketch=0;" vertex="1" parent="1">
          <mxGeometry x="200" y="338.75" width="40" height="40" as="geometry" />
        </mxCell>
        <mxCell id="68Pi1ZpebNn5_aU23Zon-29" value="3" style="text;strokeColor=none;fillColor=none;html=1;fontSize=15;fontStyle=1;verticalAlign=middle;align=center;rounded=0;sketch=0;" vertex="1" parent="1">
          <mxGeometry x="240" y="338.75" width="40" height="40" as="geometry" />
        </mxCell>
        <mxCell id="68Pi1ZpebNn5_aU23Zon-30" value="4" style="text;strokeColor=none;fillColor=none;html=1;fontSize=15;fontStyle=1;verticalAlign=middle;align=center;rounded=0;sketch=0;" vertex="1" parent="1">
          <mxGeometry x="280" y="338.75" width="40" height="40" as="geometry" />
        </mxCell>
        <mxCell id="68Pi1ZpebNn5_aU23Zon-31" value="5" style="text;strokeColor=none;fillColor=none;html=1;fontSize=15;fontStyle=1;verticalAlign=middle;align=center;rounded=0;sketch=0;" vertex="1" parent="1">
          <mxGeometry x="320" y="338.75" width="40" height="40" as="geometry" />
        </mxCell>
        <mxCell id="68Pi1ZpebNn5_aU23Zon-32" value="6" style="text;strokeColor=none;fillColor=none;html=1;fontSize=15;fontStyle=1;verticalAlign=middle;align=center;rounded=0;sketch=0;" vertex="1" parent="1">
          <mxGeometry x="360" y="338.75" width="40" height="40" as="geometry" />
        </mxCell>
        <mxCell id="68Pi1ZpebNn5_aU23Zon-33" value="7" style="text;strokeColor=none;fillColor=none;html=1;fontSize=15;fontStyle=1;verticalAlign=middle;align=center;rounded=0;sketch=0;" vertex="1" parent="1">
          <mxGeometry x="400" y="338.75" width="40" height="40" as="geometry" />
        </mxCell>
        <mxCell id="68Pi1ZpebNn5_aU23Zon-34" value="8" style="text;strokeColor=none;fillColor=none;html=1;fontSize=15;fontStyle=1;verticalAlign=middle;align=center;rounded=0;sketch=0;" vertex="1" parent="1">
          <mxGeometry x="440" y="338.75" width="40" height="40" as="geometry" />
        </mxCell>
        <mxCell id="68Pi1ZpebNn5_aU23Zon-35" value="9" style="text;strokeColor=none;fillColor=none;html=1;fontSize=15;fontStyle=1;verticalAlign=middle;align=center;rounded=0;sketch=0;" vertex="1" parent="1">
          <mxGeometry x="480" y="338.75" width="40" height="40" as="geometry" />
        </mxCell>
        <mxCell id="68Pi1ZpebNn5_aU23Zon-36" value="10" style="text;strokeColor=none;fillColor=none;html=1;fontSize=15;fontStyle=1;verticalAlign=middle;align=center;rounded=0;sketch=0;" vertex="1" parent="1">
          <mxGeometry x="520" y="338.75" width="40" height="40" as="geometry" />
        </mxCell>
        <mxCell id="68Pi1ZpebNn5_aU23Zon-37" value="11" style="text;strokeColor=none;fillColor=none;html=1;fontSize=15;fontStyle=1;verticalAlign=middle;align=center;rounded=0;sketch=0;" vertex="1" parent="1">
          <mxGeometry x="560" y="338.75" width="40" height="40" as="geometry" />
        </mxCell>
        <mxCell id="68Pi1ZpebNn5_aU23Zon-38" value="12" style="text;strokeColor=none;fillColor=none;html=1;fontSize=15;fontStyle=1;verticalAlign=middle;align=center;rounded=0;sketch=0;" vertex="1" parent="1">
          <mxGeometry x="600" y="338.75" width="40" height="40" as="geometry" />
        </mxCell>
        <mxCell id="68Pi1ZpebNn5_aU23Zon-39" value="13" style="text;strokeColor=none;fillColor=none;html=1;fontSize=15;fontStyle=1;verticalAlign=middle;align=center;rounded=0;sketch=0;" vertex="1" parent="1">
          <mxGeometry x="640" y="338.75" width="40" height="40" as="geometry" />
        </mxCell>
        <mxCell id="68Pi1ZpebNn5_aU23Zon-40" value="14" style="text;strokeColor=none;fillColor=none;html=1;fontSize=15;fontStyle=1;verticalAlign=middle;align=center;rounded=0;sketch=0;" vertex="1" parent="1">
          <mxGeometry x="680" y="338.75" width="40" height="40" as="geometry" />
        </mxCell>
        <mxCell id="68Pi1ZpebNn5_aU23Zon-41" value="15" style="text;strokeColor=none;fillColor=none;html=1;fontSize=15;fontStyle=1;verticalAlign=middle;align=center;rounded=0;sketch=0;" vertex="1" parent="1">
          <mxGeometry x="720" y="338.75" width="40" height="40" as="geometry" />
        </mxCell>
        <mxCell id="68Pi1ZpebNn5_aU23Zon-42" value="" style="shape=curlyBracket;whiteSpace=wrap;html=1;rounded=1;labelPosition=left;verticalLabelPosition=middle;align=right;verticalAlign=middle;sketch=0;fontSize=15;rotation=-90;" vertex="1" parent="1">
          <mxGeometry x="271.25" y="250" width="20" height="297.5" as="geometry" />
        </mxCell>
        <mxCell id="68Pi1ZpebNn5_aU23Zon-43" value="" style="shape=curlyBracket;whiteSpace=wrap;html=1;rounded=1;labelPosition=left;verticalLabelPosition=middle;align=right;verticalAlign=middle;sketch=0;fontSize=15;rotation=-90;" vertex="1" parent="1">
          <mxGeometry x="590" y="250" width="20" height="297.5" as="geometry" />
        </mxCell>
        <mxCell id="68Pi1ZpebNn5_aU23Zon-45" value="0" style="text;strokeColor=none;fillColor=none;html=1;fontSize=15;fontStyle=1;verticalAlign=middle;align=center;rounded=0;sketch=0;" vertex="1" parent="1">
          <mxGeometry x="261.25" y="420" width="40" height="40" as="geometry" />
        </mxCell>
        <mxCell id="68Pi1ZpebNn5_aU23Zon-46" value="1" style="text;strokeColor=none;fillColor=none;html=1;fontSize=15;fontStyle=1;verticalAlign=middle;align=center;rounded=0;sketch=0;" vertex="1" parent="1">
          <mxGeometry x="580" y="420" width="40" height="40" as="geometry" />
        </mxCell>
        <mxCell id="68Pi1ZpebNn5_aU23Zon-47" value="bit offset" style="text;strokeColor=none;fillColor=none;html=1;fontSize=15;fontStyle=1;verticalAlign=middle;align=center;rounded=0;sketch=0;" vertex="1" parent="1">
          <mxGeometry x="-80" y="340" width="120" height="40" as="geometry" />
        </mxCell>
        <mxCell id="68Pi1ZpebNn5_aU23Zon-48" value="bit 存储" style="text;strokeColor=none;fillColor=none;html=1;fontSize=15;fontStyle=1;verticalAlign=middle;align=center;rounded=0;sketch=0;" vertex="1" parent="1">
          <mxGeometry x="-80" y="280" width="120" height="40" as="geometry" />
        </mxCell>
        <mxCell id="68Pi1ZpebNn5_aU23Zon-49" value="ascii码对应" style="text;strokeColor=none;fillColor=none;html=1;fontSize=15;fontStyle=1;verticalAlign=middle;align=center;rounded=0;sketch=0;" vertex="1" parent="1">
          <mxGeometry x="-80" y="200" width="120" height="40" as="geometry" />
        </mxCell>
        <mxCell id="68Pi1ZpebNn5_aU23Zon-54" value="" style="shape=curlyBracket;whiteSpace=wrap;html=1;rounded=1;labelPosition=left;verticalLabelPosition=middle;align=right;verticalAlign=middle;sketch=0;fontSize=15;rotation=90;" vertex="1" parent="1">
          <mxGeometry x="271.25" y="40" width="20" height="297.5" as="geometry" />
        </mxCell>
        <mxCell id="68Pi1ZpebNn5_aU23Zon-55" value="" style="shape=curlyBracket;whiteSpace=wrap;html=1;rounded=1;labelPosition=left;verticalLabelPosition=middle;align=right;verticalAlign=middle;sketch=0;fontSize=15;rotation=90;" vertex="1" parent="1">
          <mxGeometry x="590" y="40" width="20" height="297.5" as="geometry" />
        </mxCell>
        <mxCell id="68Pi1ZpebNn5_aU23Zon-56" value="A" style="text;strokeColor=none;fillColor=none;html=1;fontSize=15;fontStyle=1;verticalAlign=middle;align=center;rounded=0;sketch=0;" vertex="1" parent="1">
          <mxGeometry x="231.25" y="138.75" width="100" height="40" as="geometry" />
        </mxCell>
        <mxCell id="68Pi1ZpebNn5_aU23Zon-57" value="B" style="text;strokeColor=none;fillColor=none;html=1;fontSize=15;fontStyle=1;verticalAlign=middle;align=center;rounded=0;sketch=0;" vertex="1" parent="1">
          <mxGeometry x="550" y="138.75" width="100" height="40" as="geometry" />
        </mxCell>
        <mxCell id="68Pi1ZpebNn5_aU23Zon-58" value="string查看" style="text;strokeColor=none;fillColor=none;html=1;fontSize=15;fontStyle=1;verticalAlign=middle;align=center;rounded=0;sketch=0;" vertex="1" parent="1">
          <mxGeometry x="-80" y="138.75" width="120" height="40" as="geometry" />
        </mxCell>
        <mxCell id="68Pi1ZpebNn5_aU23Zon-59" value="byte数组索引" style="text;strokeColor=none;fillColor=none;html=1;fontSize=15;fontStyle=1;verticalAlign=middle;align=center;rounded=0;sketch=0;" vertex="1" parent="1">
          <mxGeometry x="-80" y="420" width="120" height="40" as="geometry" />
        </mxCell>
      </root>
    </mxGraphModel>
  </diagram>
</mxfile>
